<svg xmlns="http://www.w3.org/2000/svg" viewBox="0 0 100 100" width="100" height="100">
  <defs>
    <linearGradient id="lotusGradient" x1="0%" y1="0%" x2="100%" y2="100%">
      <stop offset="0%" style="stop-color:#b0708c;stop-opacity:1" />
      <stop offset="100%" style="stop-color:#37956d;stop-opacity:1" />
    </linearGradient>
  </defs>
  
  <!-- Lotus Flower -->
  <g transform="translate(50, 50)">
    <!-- Center circle -->
    <circle cx="0" cy="0" r="6" fill="url(#lotusGradient)" opacity="0.9"/>
    
    <!-- Inner petals -->
    <ellipse cx="0" cy="-12" rx="5" ry="12" fill="url(#lotusGradient)" opacity="0.8"/>
    <ellipse cx="10" cy="-8" rx="5" ry="12" fill="url(#lotusGradient)" opacity="0.8" transform="rotate(60 0 0)"/>
    <ellipse cx="10" cy="8" rx="5" ry="12" fill="url(#lotusGradient)" opacity="0.8" transform="rotate(120 0 0)"/>
    <ellipse cx="0" cy="12" rx="5" ry="12" fill="url(#lotusGradient)" opacity="0.8" transform="rotate(180 0 0)"/>
    <ellipse cx="-10" cy="8" rx="5" ry="12" fill="url(#lotusGradient)" opacity="0.8" transform="rotate(240 0 0)"/>
    <ellipse cx="-10" cy="-8" rx="5" ry="12" fill="url(#lotusGradient)" opacity="0.8" transform="rotate(300 0 0)"/>
    
    <!-- Outer petals -->
    <ellipse cx="0" cy="-20" rx="7" ry="16" fill="url(#lotusGradient)" opacity="0.6"/>
    <ellipse cx="17" cy="-10" rx="7" ry="16" fill="url(#lotusGradient)" opacity="0.6" transform="rotate(60 0 0)"/>
    <ellipse cx="17" cy="10" rx="7" ry="16" fill="url(#lotusGradient)" opacity="0.6" transform="rotate(120 0 0)"/>
    <ellipse cx="0" cy="20" rx="7" ry="16" fill="url(#lotusGradient)" opacity="0.6" transform="rotate(180 0 0)"/>
    <ellipse cx="-17" cy="10" rx="7" ry="16" fill="url(#lotusGradient)" opacity="0.6" transform="rotate(240 0 0)"/>
    <ellipse cx="-17" cy="-10" rx="7" ry="16" fill="url(#lotusGradient)" opacity="0.6" transform="rotate(300 0 0)"/>
  </g>
</svg>

